<?xml version="1.0" encoding="UTF-8"?>
<svg width="265px" height="306px" viewBox="0 0 265 306" version="1.1" xmlns="http://www.w3.org/2000/svg" xmlns:xlink="http://www.w3.org/1999/xlink">
    <title>Group 4</title>
    <g id="Page-1" stroke="none" stroke-width="1" fill="none" fill-rule="evenodd">
        <g id="MacBook-Pro-13&quot;" transform="translate(-73, -237)">
            <g id="CTA" transform="translate(78.7218, 171)">
                <g id="Illustration" transform="translate(0, 66)">
                    <g id="Group-4" transform="translate(126.058, 148.2371) scale(-1, 1) translate(-126.058, -148.2371)">
                        <g id="Group-Copy" transform="translate(126.058, 161.5843) rotate(-18) translate(-126.058, -161.5843)translate(29.3913, 51.1615)">
                            <g id="Group" transform="translate(77.096, 122.7766)" stroke="#E2E8F0" stroke-linecap="round" stroke-linejoin="round" stroke-width="13.3020739">
                                <path d="M5.94942934,0 C-0.124248071,11.0073477 -3.21838562,32.4079766 10.9589854,46.482382 C25.3655517,60.7729389 0,85.4459841 0,85.4459841 L8.36563115,95.0745477" id="Path"></path>
                            </g>
                            <g id="Group" transform="translate(113.552, 133.228)" stroke="#E2E8F0" stroke-linecap="round" stroke-linejoin="round" stroke-width="13.3020739">
                                <path d="M0.46689301,0 C-2.47990465,11.7147524 9.36814494,33.7163733 12.3648203,44.945813 C15.3614957,56.1752527 1.58330556,72.8555239 1.58330556,72.8555239 L7.86980724,87.6176839" id="Path"></path>
                            </g>
                            <path d="M185.838877,153.000907 C185.838877,153.000907 170.761096,149.789748 162.231754,145.13103 C154.946615,141.153516 145.353152,132.242182 145.353152,132.242182" id="Path" stroke="#E2E8F0" stroke-width="13.297846" stroke-linecap="round" stroke-linejoin="round" transform="translate(165.596, 142.6215) rotate(-46) translate(-165.596, -142.6215)"></path>
                            <path d="M43.2573199,131.085898 C43.2573199,131.085898 27.9542807,129.340916 19.0169675,125.522848 C11.3891506,122.263801 0.961046322,114.317449 0.961046322,114.317449" id="Path" stroke="#E2E8F0" stroke-width="13.297846" stroke-linecap="round" stroke-linejoin="round" transform="translate(22.1092, 122.7017) rotate(8) translate(-22.1092, -122.7017)"></path>
                            <g id="Group" transform="translate(8.2973, -0)">
                                <path d="M68.1499112,0.0197337378 C79.0366915,0.402911269 89.5960498,6.32906291 95.6697272,15.4647358 C102.529217,6.91529179 113.612451,1.96509659 124.48286,2.56606306 C135.353269,3.16702953 145.79803,9.3093326 151.675254,18.5710938 C157.552478,27.8344925 158.747568,39.9799102 154.114548,50.4796296 C165.525203,52.4872178 175.822624,60.1687811 181.045004,70.6079125 C186.300126,81.047044 186.365611,93.9899295 181.241457,104.494561 C176.117303,114.999193 165.901738,122.821582 154.540196,124.896309 C157.961756,134.061457 157.830787,144.202561 154.130919,153.266184 C150.43105,162.328168 143.195025,169.518478 134.076323,172.872101 C125.072219,176.189697 117.32869,175.456093 109.486934,173.021114 C101.661549,170.586135 95.3259341,165.133224 89.2522567,157.355048 C82.5073643,164.553546 75.7297297,169.413678 67.7078916,171.131427 C59.6860535,172.850813 51.9097819,172.881926 43.2330999,168.765223 C34.4581913,164.602671 27.909752,156.790107 25.0284387,147.430095 C22.1634966,138.070083 22.9493093,127.958454 27.1894237,119.140458 C16.057077,116.048838 6.57821115,107.335643 2.43632332,96.411808 C-1.7383067,85.4879733 -0.477732148,72.6040382 5.67780075,62.6807227 C11.8333336,52.7557696 22.7692272,46.0337877 34.3108514,45.0643813 C30.6437254,34.189672 32.9356791,22.2014553 39.6314583,13.5062728 C46.3272374,4.8127279 57.263131,-0.361806282 68.1499112,0.0197337378 Z" id="Path" fill="#000000" fill-rule="nonzero"></path>
                                <path d="M83.276197,74.0785495 C82.0972454,80.3142474 77.1202581,85.1811265 70.5882139,84.8866198 C64.0561697,84.5921131 59.5870713,79.2146852 59.0143218,72.9004526" id="Path" stroke="#FFFFFF" stroke-width="6.65103693" stroke-linecap="round" stroke-linejoin="round" transform="translate(71.1453, 78.8999) rotate(-177) translate(-71.1453, -78.8999)"></path>
                                <path d="M98.7961324,74.7816004 C99.4172136,81.0992493 103.918265,86.3944417 110.450048,86.6881733 C116.981832,86.9835425 121.926505,82.0307488 123.057056,75.7914267" id="Path" stroke="#FFFFFF" stroke-width="6.65103693" stroke-linecap="round" stroke-linejoin="round" transform="translate(110.9266, 80.7412) rotate(-167) translate(-110.9266, -80.7412)"></path>
                                <ellipse id="Oval" fill-opacity="0.3" fill="#FFFFFF" fill-rule="nonzero" transform="translate(47.4642, 93.5285) scale(-1, 1) rotate(-2.5875) translate(-47.4642, -93.5285)" cx="47.4641687" cy="93.528533" rx="6.54656295" ry="6.54807844"></ellipse>
                                <ellipse id="Oval" fill-opacity="0.3" fill="#FFFFFF" fill-rule="nonzero" transform="translate(132.643, 97.3783) scale(-1, 1) rotate(-2.5875) translate(-132.643, -97.3783)" cx="132.642992" cy="97.3783209" rx="6.54656295" ry="6.54807844"></ellipse>
                                <path d="M80.5791052,97.6659851 C80.4645075,100.236877 82.1016173,106.092616 88.9774785,106.402105 C95.738742,106.70832 97.9979536,101.029432 98.1125513,98.4585403" id="Path" stroke="#FFFFFF" stroke-width="6.65103693" stroke-linecap="round" stroke-linejoin="round"></path>
                            </g>
                        </g>
                        <g id="Group" transform="translate(67.2681, 36.4829) rotate(-33) translate(-67.2681, -36.4829)translate(51.1609, 21.8847)" fill-rule="nonzero">
                            <path d="M27.1727342,3.03687868 C23.7632264,1.39915488 19.3486202,2.41799097 16.8516235,5.41592338 C15.3430213,1.81110651 11.422851,-0.471432034 7.68499196,0.0826381134 C3.94904196,0.637188391 0.709914134,3.97745357 0.114300236,7.89531527 C-0.23170944,10.160089 0.23886372,12.4872796 1.10794458,14.5739251 C1.97654818,16.6605706 3.23029634,18.5364389 4.52031587,20.3652545 C6.0379859,22.5171976 7.61865355,24.6259291 9.35729252,26.5872606 C10.3041659,27.6555501 11.3794208,28.7272005 12.7472328,29.0109574 C12.9338394,29.0498479 13.1381045,29.1031424 13.2998938,29.127629 C13.4621604,29.1521156 13.6726297,29.1617182 13.8625771,29.1799632 C15.2523429,29.3143996 16.5939059,28.6090885 17.8113827,27.8687279 C20.0473211,26.5099596 22.1758772,24.9634606 24.2562306,23.3569452 C26.0244593,21.9919353 27.7721661,20.5707502 29.2134754,18.8341196 C30.6552619,17.097489 31.7863556,15.0137243 32.1194794,12.7465499 C32.6974349,8.82628755 30.5808102,4.67412236 27.1727342,3.03687868 Z" id="Path" fill="#E2E8F0"></path>
                            <ellipse id="Oval" fill-opacity="0.15" fill="#FFFFFF" transform="translate(25.0604, 8.1887) rotate(8.5686) translate(-25.0604, -8.1887)" cx="25.0604318" cy="8.18867477" rx="2.59848391" ry="2.22564512"></ellipse>
                            <ellipse id="Oval" fill-opacity="0.15" fill="#FFFFFF" transform="translate(27.211, 12.1992) rotate(8.5686) translate(-27.211, -12.1992)" cx="27.211043" cy="12.1992016" rx="1.57373599" ry="1.34793403"></ellipse>
                        </g>
                        <g id="Group-3" transform="translate(150.9592, 26.2363) rotate(67) translate(-150.9592, -26.2363)translate(130.947, 6.2354)" fill="#000000" fill-rule="nonzero">
                            <path d="M27.4271007,2.90224371 C28.0341189,1.61938555 29.8620138,1.61907653 30.4611066,2.90173079 L31.7716266,5.68143677 C32.5803411,7.77238473 35.2770831,8.67159459 37.1198109,9.55694887 C38.4082248,10.1611998 38.4079162,11.9852372 37.1192979,12.5899239 L34.3397774,13.8977802 C33.2084904,14.4286223 32.3018803,15.3389975 31.769802,16.4672445 L30.4583415,19.2473937 C29.8588147,20.5302506 28.0309198,20.5305597 27.4243356,19.2479067 L26.121307,16.4681994 C25.3125925,14.3772515 22.6083591,13.4780429 20.7656313,12.5926886 C19.4847088,11.9884363 19.4850174,10.164399 20.7661444,9.55971358 L23.5456648,8.25185721 C25.6433859,7.44317343 26.5428072,4.74394921 27.4271007,2.90224371 Z" id="Path" transform="translate(28.9455, 11.0748) rotate(14) translate(-28.9455, -11.0748)"></path>
                            <path d="M7.85406934,25.3925092 C8.27646726,24.4989289 9.54967995,24.499309 9.96739368,25.3931402 L10.881137,27.3302117 C11.4451253,28.7872562 13.3238231,29.4146217 14.6076562,30.0320558 C15.5052926,30.4534622 15.5056722,31.7242843 14.6082874,32.1451548 L12.67265,33.0554439 C11.8848297,33.4249176 11.2536308,34.0588883 10.8833816,34.8447741 L9.97079524,36.7813003 C9.55361541,37.6748822 8.28040272,37.674502 7.85747091,36.7806693 L6.94894565,34.8435994 C6.38495733,33.3865549 4.50104151,32.7591878 3.21720834,32.1417538 C2.32479005,31.7203489 2.32441047,30.4495268 3.21657717,30.0286547 L5.15221456,29.1183656 C6.61311008,28.5556321 7.23871857,26.6753529 7.85406934,25.3925092 Z" id="Path-Copy" transform="translate(8.9144, 31.0869) rotate(-53) translate(-8.9144, -31.0869)"></path>
                        </g>
                    </g>
                </g>
            </g>
        </g>
    </g>
</svg>