<?xml version="1.0" encoding="UTF-8"?>
<svg width="176px" height="200px" viewBox="0 0 176 200" version="1.1" xmlns="http://www.w3.org/2000/svg" xmlns:xlink="http://www.w3.org/1999/xlink">
    <title>Group 5</title>
    <g id="Page-1" stroke="none" stroke-width="1" fill="none" fill-rule="evenodd">
        <g id="Artboard" transform="translate(-266, -237)">
            <g id="Group-5" transform="translate(266.8364, 237.02)">
                <g id="Group" transform="translate(86.8517, 117.382) rotate(-2) translate(-86.8517, -117.382)translate(2.718, 38.032)">
                    <path d="M61.9738928,0.0178845152 C71.8740693,0.365154983 81.4764962,5.73597473 86.9997526,14.0155557 C93.2376082,6.26726887 103.316434,1.78094997 113.201724,2.32560066 C123.087013,2.87025135 132.585227,8.43696726 137.929834,16.830821 C143.27444,25.2261587 144.361227,36.2334453 140.148069,45.7492497 C150.524645,47.5687095 159.888872,54.5304435 164.637979,63.9913377 C169.416861,73.4522318 169.476411,85.1822565 164.816629,94.7025131 C160.156847,104.22277 150.867057,111.312133 140.535143,113.192439 C143.646627,121.498733 143.527527,130.689528 140.162956,138.903811 C136.798385,147.116609 130.218117,153.633124 121.925789,156.672483 C113.737673,159.679192 106.695893,159.014332 99.5647886,156.807532 C92.4485715,154.600733 86.6871154,149.658807 81.163859,142.609513 C75.0302158,149.133449 68.8667976,153.538144 61.5719307,155.094925 C54.2770638,156.65319 47.2055091,156.681387 39.3151428,152.950456 C31.3354517,149.177971 25.3804583,142.097512 22.7602612,133.614614 C20.1549516,125.131717 20.8695508,115.967635 24.725409,107.975962 C14.6019202,105.174053 5.98206725,97.2773604 2.21553392,87.377184 C-1.58077437,77.4770075 -0.434438143,65.8004091 5.16325566,56.8069944 C10.7609495,47.8120957 20.7057885,41.7200219 31.2014643,40.8414572 C27.866668,30.9858027 29.9509157,20.120986 36.0398965,12.2406177 C42.1288772,4.36173348 52.0737162,-0.327901891 61.9738928,0.0178845152 Z" id="Path" fill="#FFFFFF" fill-rule="nonzero"></path>
                    <path d="M68.0330986,77.024948 C66.9611997,82.6762554 62.4354048,87.0868872 56.4952988,86.819756 C50.5551929,86.5526249 46.4909099,81.6789659 45.969848,75.9564235" id="Path" stroke="#000000" stroke-width="6.03081108" stroke-linecap="round" stroke-linejoin="round"></path>
                    <path d="M82.1464329,77.6616105 C82.7121573,83.387121 86.8062153,88.186577 92.7463212,88.4537081 C98.6864271,88.7223233 103.182447,84.2345203 104.209684,78.5802448" id="Path" stroke="#000000" stroke-width="6.03081108" stroke-linecap="round" stroke-linejoin="round"></path>
                    <ellipse id="Oval" fill-opacity="0.214925699" fill="#FF9013" fill-rule="nonzero" transform="translate(35.4663, 94.6515) scale(-1, 1) rotate(-2.5875) translate(-35.4663, -94.6515)" cx="35.4662838" cy="94.6514536" rx="5.95324597" ry="5.93450776"></ellipse>
                    <ellipse id="Oval" fill-opacity="0.214925699" fill="#FF9013" fill-rule="nonzero" transform="translate(112.9259, 98.1405) scale(-1, 1) rotate(-2.5875) translate(-112.9259, -98.1405)" cx="112.925861" cy="98.1404829" rx="5.95324597" ry="5.93450776"></ellipse>
                    <path d="M66.261488,95.0088092 C66.1572756,97.3387863 67.646024,102.645791 73.8987671,102.926279 C80.0472978,103.203799 82.1017705,98.0570722 82.2059829,95.7270951" id="Path" stroke="#000000" stroke-width="6.03081108" stroke-linecap="round" stroke-linejoin="round"></path>
                </g>
                <g id="Group-3" transform="translate(150.0178, 24.1893) rotate(67) translate(-150.0178, -24.1893)translate(131.5486, 5.7724)" fill="#000000" fill-rule="nonzero">
                    <path d="M25.3156432,2.67045305 C25.8762529,1.48861794 27.5627582,1.4875566 28.1149655,2.66869141 L29.3229341,5.2283842 C30.0682051,7.15390927 32.5559689,7.98098108 34.2557834,8.79565409 C35.4442802,9.35165229 35.4432204,11.031683 34.2540212,11.5891775 L31.6889442,12.7949604 C30.6449379,13.2843735 29.8080683,14.1232602 29.3166675,15.1626588 L28.1054686,17.723874 C27.5517708,18.9057048 25.8652655,18.9067661 25.3061463,17.7256357 L24.1050896,15.1659385 C23.3598186,13.2404135 20.8651429,12.413346 19.1653284,11.598673 C17.9837435,11.0426705 17.9848033,9.36263973 19.1670905,8.80514957 L21.7321676,7.59936669 C23.6679712,6.8536367 24.4989682,4.36713263 25.3156432,2.67045305 Z" id="Path" transform="translate(26.7131, 10.1972) rotate(14) translate(-26.7131, -10.1972)"></path>
                    <path d="M7.24717088,23.3754646 C7.63567544,22.5518624 8.80906885,22.5533207 9.19481158,23.3778851 L10.038603,25.1648521 C10.5596424,26.5088823 12.2915965,27.0890101 13.4753146,27.6594626 C14.3029431,28.0488221 14.3043986,29.2206464 13.4777348,29.60795 L11.6946429,30.4456427 C10.968909,30.7856486 10.3877476,31.3696833 10.0472096,32.0940259 L9.20785468,33.8789011 C8.82415911,34.7025092 7.6507657,34.7010509 7.26021398,33.8764805 L6.42123158,32.0895195 C5.90019213,30.7454893 4.16342908,30.1653555 2.97971097,29.5949031 C2.15689145,29.2055496 2.15543595,28.0337252 2.9772908,27.6464157 L4.76038262,26.808723 C6.10625463,26.291098 6.68117962,24.5578383 7.24717088,23.3754646 Z" id="Path-Copy" transform="translate(8.2293, 28.6272) rotate(-53) translate(-8.2293, -28.6272)"></path>
                </g>
            </g>
        </g>
    </g>
</svg>