<svg width="285" height="229" viewBox="0 0 285 229" fill="none" xmlns="http://www.w3.org/2000/svg">
<path fill-rule="evenodd" clip-rule="evenodd" d="M265.517 93.8478C265.863 94.4977 265.842 95.2814 265.463 95.9122C265.084 96.5446 264.401 96.9301 263.665 96.9301C254.071 96.9301 223.56 96.9301 213.664 96.9301C212.772 96.9301 211.926 96.5318 211.357 95.8437C210.789 95.1572 210.557 94.2508 210.725 93.3747C211.383 90.0216 213.69 85.4117 221.312 84.6662C223.049 84.4974 224.707 85.0788 226.169 85.8115C227.722 80.4721 232.654 76.5647 238.491 76.5647C245.572 76.5647 251.321 82.3151 251.321 89.3956V89.3988C252.773 88.6485 254.422 88.2248 256.168 88.2248C260.217 88.2248 263.738 90.5027 265.517 93.8478Z" fill="#E2E8F0"/>
<path fill-rule="evenodd" clip-rule="evenodd" d="M0.985385 52.0517C1.22791 53.9359 2.83165 55.3462 4.73123 55.3462C13.0038 55.3532 39.0175 55.3532 47.9631 55.3532C49.9958 55.3532 51.6431 53.7046 51.6431 51.6718C51.6431 45.5383 46.6649 40.5589 40.5316 40.5589C38.9713 40.5589 37.4853 40.8811 36.138 41.4623C34.2483 36.6862 29.5869 33.304 24.1419 33.304C17.9778 33.304 12.8174 37.64 11.5473 43.4261C10.7384 43.1518 9.87063 43.003 8.9678 43.003C4.52798 43.003 0.923642 46.6077 0.923642 51.0477C0.923642 51.3879 0.94473 51.7237 0.985385 52.0517Z" fill="#E2E8F0"/>
<path d="M209.241 213.126C211.408 213.126 213.165 211.369 213.165 209.202C213.165 207.034 211.408 205.278 209.241 205.278C207.073 205.278 205.317 207.034 205.317 209.202C205.317 211.369 207.073 213.126 209.241 213.126Z" fill="#E2E8F0"/>
<path d="M276.068 220.12C277.636 220.12 278.907 218.849 278.907 217.281C278.907 215.713 277.636 214.442 276.068 214.442C274.5 214.442 273.229 215.713 273.229 217.281C273.229 218.849 274.5 220.12 276.068 220.12Z" fill="#E2E8F0"/>
<path fill-rule="evenodd" clip-rule="evenodd" d="M263.088 193.564C263.746 194.223 264.118 195.117 264.118 196.051C264.118 200.564 264.118 214.451 264.118 221.826C264.118 223.077 263.62 224.277 262.736 225.161C261.851 226.046 260.652 226.542 259.402 226.542C252.471 226.542 239.607 226.542 232.675 226.542C230.071 226.542 227.959 224.431 227.959 221.826V188.727C227.959 186.123 230.071 184.011 232.675 184.011H252.078C253.011 184.011 253.907 184.382 254.565 185.042C256.59 187.066 261.063 191.54 263.088 193.564Z" fill="white"/>
<path fill-rule="evenodd" clip-rule="evenodd" d="M261.697 193.413C261.355 193.071 261.355 192.515 261.697 192.173C262.039 191.831 262.594 191.831 262.936 192.173L263.564 192.801C263.822 193.059 264.048 193.343 264.239 193.645C264.498 194.055 264.376 194.596 263.967 194.855C263.557 195.113 263.016 194.991 262.758 194.582C262.635 194.387 262.49 194.206 262.325 194.041L261.697 193.413ZM263.242 197.55C263.242 197.066 263.634 196.673 264.118 196.673C264.602 196.673 264.994 197.066 264.994 197.55V199.327C264.994 199.811 264.602 200.203 264.118 200.203C263.634 200.203 263.242 199.811 263.242 199.327V197.55ZM263.242 202.881C263.242 202.397 263.634 202.005 264.118 202.005C264.602 202.005 264.994 202.397 264.994 202.881V204.657C264.994 205.141 264.602 205.533 264.118 205.533C263.634 205.533 263.242 205.141 263.242 204.657V202.881ZM263.242 208.211C263.242 207.727 263.634 207.335 264.118 207.335C264.602 207.335 264.994 207.727 264.994 208.211V209.987C264.994 210.471 264.602 210.863 264.118 210.863C263.634 210.863 263.242 210.471 263.242 209.987V208.211ZM263.242 213.541C263.242 213.057 263.634 212.665 264.118 212.665C264.602 212.665 264.994 213.057 264.994 213.541V215.319C264.994 215.802 264.602 216.195 264.118 216.195C263.634 216.195 263.242 215.802 263.242 215.319V213.541ZM263.242 218.873C263.242 218.389 263.634 217.996 264.118 217.996C264.602 217.996 264.994 218.389 264.994 218.873V220.649C264.994 221.132 264.602 221.525 264.118 221.525C263.634 221.525 263.242 221.132 263.242 220.649V218.873ZM262.547 223.576C262.806 223.167 263.347 223.046 263.756 223.304C264.164 223.563 264.286 224.104 264.027 224.514C263.657 225.097 263.193 225.616 262.656 226.046C262.279 226.349 261.726 226.289 261.424 225.911C261.121 225.534 261.182 224.982 261.56 224.679C261.946 224.369 262.28 223.995 262.547 223.576ZM258.812 225.666C259.295 225.659 259.694 226.046 259.701 226.53C259.706 227.013 259.319 227.412 258.836 227.419C258.808 227.419 258.778 227.419 258.75 227.419H257.047C256.563 227.419 256.171 227.026 256.171 226.542C256.171 226.059 256.563 225.666 257.047 225.666H258.75C258.771 225.666 258.791 225.666 258.812 225.666ZM253.493 225.666C253.977 225.666 254.369 226.059 254.369 226.542C254.369 227.026 253.977 227.419 253.493 227.419H251.717C251.233 227.419 250.841 227.026 250.841 226.542C250.841 226.059 251.233 225.666 251.717 225.666H253.493ZM248.163 225.666C248.647 225.666 249.039 226.059 249.039 226.542C249.039 227.026 248.647 227.419 248.163 227.419H246.387C245.903 227.419 245.511 227.026 245.511 226.542C245.511 226.059 245.903 225.666 246.387 225.666H248.163ZM242.833 225.666C243.317 225.666 243.709 226.059 243.709 226.542C243.709 227.026 243.317 227.419 242.833 227.419H241.055C240.572 227.419 240.179 227.026 240.179 226.542C240.179 226.059 240.572 225.666 241.055 225.666H242.833ZM237.501 225.666C237.985 225.666 238.378 226.059 238.378 226.542C238.378 227.026 237.985 227.419 237.501 227.419H235.725C235.242 227.419 234.849 227.026 234.849 226.542C234.849 226.059 235.242 225.666 235.725 225.666H237.501ZM232.368 225.562C232.84 225.666 233.14 226.133 233.036 226.605C232.933 227.078 232.466 227.378 231.993 227.274C231.319 227.127 230.673 226.869 230.084 226.51C229.671 226.259 229.539 225.719 229.79 225.306C230.041 224.892 230.58 224.761 230.994 225.013C231.417 225.271 231.883 225.456 232.368 225.562ZM229.128 222.767C229.299 223.22 229.07 223.726 228.619 223.897C228.166 224.068 227.66 223.841 227.489 223.388C227.247 222.747 227.108 222.067 227.087 221.371C227.071 220.887 227.451 220.483 227.935 220.468C228.419 220.452 228.822 220.832 228.838 221.316C228.853 221.817 228.953 222.307 229.128 222.767ZM228.835 217.79C228.835 218.274 228.444 218.666 227.959 218.666C227.477 218.666 227.083 218.274 227.083 217.79V216.013C227.083 215.529 227.477 215.136 227.959 215.136C228.444 215.136 228.835 215.529 228.835 216.013V217.79ZM228.835 212.459C228.835 212.942 228.444 213.335 227.959 213.335C227.477 213.335 227.083 212.942 227.083 212.459V210.683C227.083 210.199 227.477 209.806 227.959 209.806C228.444 209.806 228.835 210.199 228.835 210.683V212.459ZM228.835 207.129C228.835 207.612 228.444 208.005 227.959 208.005C227.477 208.005 227.083 207.612 227.083 207.129V205.353C227.083 204.869 227.477 204.476 227.959 204.476C228.444 204.476 228.835 204.869 228.835 205.353V207.129ZM228.835 201.799C228.835 202.282 228.444 202.675 227.959 202.675C227.477 202.675 227.083 202.282 227.083 201.799V200.021C227.083 199.538 227.477 199.145 227.959 199.145C228.444 199.145 228.835 199.538 228.835 200.021V201.799ZM228.835 196.467C228.835 196.951 228.444 197.344 227.959 197.344C227.477 197.344 227.083 196.951 227.083 196.467V194.691C227.083 194.207 227.477 193.815 227.959 193.815C228.444 193.815 228.835 194.207 228.835 194.691V196.467ZM228.835 191.137C228.835 191.621 228.444 192.014 227.959 192.014C227.477 192.014 227.083 191.621 227.083 191.137V189.379C227.083 189.372 227.083 189.364 227.083 189.357C227.085 188.873 227.479 188.482 227.963 188.484C228.447 188.486 228.838 188.88 228.835 189.364C228.835 189.368 228.835 189.374 228.835 189.379V191.137ZM229.794 186.606C229.495 186.986 228.944 187.052 228.564 186.754C228.184 186.455 228.117 185.904 228.416 185.524C228.57 185.328 228.735 185.141 228.912 184.965C229.226 184.651 229.57 184.375 229.935 184.136C230.342 183.874 230.885 183.99 231.148 184.397C231.41 184.802 231.294 185.346 230.887 185.608C230.624 185.779 230.377 185.978 230.151 186.204C230.024 186.332 229.905 186.465 229.794 186.606ZM233.799 184.888C233.315 184.888 232.923 184.495 232.923 184.011C232.923 183.528 233.315 183.135 233.799 183.135H235.575C236.059 183.135 236.451 183.528 236.451 184.011C236.451 184.495 236.059 184.888 235.575 184.888H233.799ZM239.129 184.888C238.645 184.888 238.253 184.495 238.253 184.011C238.253 183.528 238.645 183.135 239.129 183.135H240.907C241.389 183.135 241.783 183.528 241.783 184.011C241.783 184.495 241.389 184.888 240.907 184.888H239.129ZM244.461 184.888C243.975 184.888 243.584 184.495 243.584 184.011C243.584 183.528 243.975 183.135 244.461 183.135H246.237C246.72 183.135 247.113 183.528 247.113 184.011C247.113 184.495 246.72 184.888 246.237 184.888H244.461ZM249.791 184.888C249.307 184.888 248.914 184.495 248.914 184.011C248.914 183.528 249.307 183.135 249.791 183.135H251.567C252.05 183.135 252.443 183.528 252.443 184.011C252.443 184.495 252.05 184.888 251.567 184.888H249.791ZM254.159 185.875C253.817 185.533 253.817 184.977 254.159 184.635C254.501 184.293 255.056 184.293 255.398 184.635L256.654 185.891C256.996 186.233 256.996 186.789 256.654 187.131C256.312 187.473 255.757 187.473 255.415 187.131L254.159 185.875ZM257.929 189.643C257.587 189.302 257.587 188.746 257.929 188.405C258.269 188.063 258.824 188.063 259.166 188.405L260.424 189.661C260.765 190.003 260.765 190.558 260.424 190.9C260.082 191.242 259.527 191.242 259.185 190.9L257.929 189.643Z" fill="#E2E8F0"/>
<path fill-rule="evenodd" clip-rule="evenodd" d="M270.701 181.56C270.02 182.247 268.91 182.251 268.223 181.57C267.536 180.889 267.532 179.778 268.213 179.091L273.712 173.551C274.393 172.864 275.503 172.86 276.19 173.541C276.876 174.222 276.881 175.333 276.2 176.02L270.701 181.56Z" fill="black"/>
<path fill-rule="evenodd" clip-rule="evenodd" d="M261.743 173.727C261.674 174.692 260.835 175.419 259.87 175.35C258.905 175.281 258.178 174.442 258.247 173.476L258.807 165.691C258.876 164.726 259.715 164 260.681 164.068C261.645 164.138 262.372 164.977 262.303 165.942L261.743 173.727Z" fill="black"/>
<path fill-rule="evenodd" clip-rule="evenodd" d="M273.838 193.203C272.871 193.238 272.059 192.48 272.025 191.513C271.99 190.547 272.748 189.735 273.714 189.7L281.515 189.427C282.482 189.392 283.294 190.15 283.328 191.117C283.362 192.083 282.606 192.895 281.639 192.93L273.838 193.203Z" fill="black"/>
<path fill-rule="evenodd" clip-rule="evenodd" d="M64.0254 134.898C66.7639 134.965 68.9327 137.245 68.8646 139.985C68.7952 142.725 66.5155 144.893 63.7759 144.824C63.7759 144.824 40.8361 144.333 22.8209 162.536C20.8941 164.484 17.7475 164.501 15.8001 162.572C13.8524 160.646 13.8357 157.499 15.7625 155.551C36.9571 134.135 64.0254 134.898 64.0254 134.898Z" fill="black"/>
<path fill-rule="evenodd" clip-rule="evenodd" d="M75.9213 161.133C75.6101 158.41 77.568 155.947 80.2896 155.636C83.0126 155.325 85.4756 157.283 85.7868 160.006C85.7868 160.006 86.9033 169.763 86.5352 180.183C86.2737 187.606 85.1847 195.322 82.6919 200.498C80.7728 204.483 76.769 207.069 71.8036 208.306C66.797 209.554 60.7925 209.431 56.5339 209.092L56.2431 213.497C56.0618 216.231 53.6949 218.304 50.9606 218.123C48.2264 217.942 46.1537 215.575 46.3335 212.841L46.97 203.232C47.0637 201.822 47.752 200.521 48.8637 199.651C49.9754 198.78 51.4042 198.425 52.7944 198.672C52.7944 198.672 59.9268 199.95 66.4923 199.184C68.3595 198.966 70.1814 198.593 71.6978 197.886C72.5706 197.478 73.3561 196.997 73.7453 196.188C75.7483 192.031 76.4016 185.794 76.6119 179.833C76.9522 170.175 75.9213 161.133 75.9213 161.133Z" fill="black"/>
<path fill-rule="evenodd" clip-rule="evenodd" d="M128.861 180.761C127.852 178.213 129.1 175.325 131.649 174.316C134.195 173.305 137.083 174.555 138.094 177.103C138.094 177.103 143.845 191.739 144.503 202.68C144.886 209.06 143.25 214.302 139.894 216.881C136.933 219.154 132.032 220.378 126.519 220.581C120.153 220.814 112.919 219.866 108.132 219.066L107.867 221.091C107.513 223.809 105.019 225.726 102.301 225.372C99.5839 225.018 97.6661 222.524 98.0201 219.807L98.9636 212.57C99.1451 211.187 99.8989 209.943 101.043 209.143C102.186 208.344 103.613 208.062 104.975 208.368C104.975 208.368 113.615 210.308 122.115 210.641C124.766 210.745 127.404 210.696 129.723 210.342C131.383 210.089 132.861 209.761 133.846 209.004C134.457 208.535 134.44 207.597 134.55 206.588C134.785 204.424 134.549 201.851 134.117 199.207C132.664 190.333 128.861 180.761 128.861 180.761Z" fill="black"/>
<path fill-rule="evenodd" clip-rule="evenodd" d="M146.719 165.921C145.44 163.496 146.371 160.492 148.795 159.213C151.219 157.936 154.224 158.866 155.503 161.291C155.503 161.291 158.889 167.671 165.091 172.883C170.889 177.756 179.321 181.611 189.91 177.191C192.439 176.136 195.349 177.333 196.405 179.86C197.46 182.389 196.265 185.3 193.736 186.355C178.803 192.587 166.878 187.358 158.701 180.484C150.927 173.95 146.719 165.921 146.719 165.921Z" fill="black"/>
<path fill-rule="evenodd" clip-rule="evenodd" d="M60.3554 124.002C53.0418 121.782 46.9042 116.754 43.2859 110.023C39.6577 103.267 38.8607 95.3492 41.0681 88.0106C43.2783 80.6668 48.3146 74.5079 55.0652 70.8775C61.8028 67.2594 69.6925 66.4566 77.0152 68.6467C75.283 61.2037 76.5646 53.3739 80.5893 46.8712C84.6224 40.353 91.0813 35.7049 98.542 33.9485C106.003 32.1921 113.857 33.4706 120.378 37.5042C126.877 41.5293 131.517 47.9651 133.287 55.3992C138.864 50.1723 146.287 47.3701 153.927 47.6035C161.588 47.841 168.843 51.1063 174.098 56.6928C179.347 62.2759 182.166 69.7177 181.933 77.3826C181.701 85.0198 178.447 92.2591 172.892 97.5083C180.205 99.7235 186.346 104.751 189.962 111.487C193.589 118.239 194.386 126.156 192.178 133.495C189.968 140.839 184.932 146.998 178.181 150.628C171.447 154.245 163.554 155.049 156.231 152.859C157.963 160.302 156.682 168.132 152.661 174.633C148.624 181.153 142.165 185.801 134.704 187.557C127.244 189.314 119.39 188.035 112.872 184.001C106.369 179.976 101.729 173.541 99.9591 166.106C94.3825 171.333 86.9632 174.135 79.3192 173.902C71.6579 173.665 64.403 170.399 59.1488 164.813C53.8994 159.23 51.0805 151.788 51.3148 144.127C51.5493 136.485 54.7991 129.246 60.3554 124.002Z" fill="#FACC15"/>
<path d="M92.0207 119.613C94.962 120.498 98.064 118.832 98.9494 115.89C99.8347 112.949 98.1682 109.847 95.2269 108.962C92.2857 108.076 89.1835 109.743 88.2981 112.684C87.4128 115.626 89.0795 118.728 92.0207 119.613Z" fill="#FCDB5C"/>
<path d="M161.967 140.671C159.025 139.785 157.359 136.683 158.244 133.742C159.13 130.801 162.232 129.134 165.173 130.02C168.114 130.905 169.781 134.007 168.895 136.948C168.01 139.89 164.908 141.556 161.967 140.671Z" fill="#FCDB5C"/>
<path fill-rule="evenodd" clip-rule="evenodd" d="M134.905 137.163C134.371 138.481 132.867 139.116 131.55 138.582C130.23 138.046 129.595 136.543 130.129 135.225C131.061 132.929 129.953 130.31 127.657 129.379C125.363 128.448 122.744 129.556 121.813 131.851C121.278 133.169 119.773 133.804 118.455 133.269C117.137 132.735 116.502 131.231 117.036 129.914C119.037 124.983 124.665 122.605 129.594 124.605C134.525 126.605 136.906 132.232 134.905 137.163Z" fill="black"/>
<path d="M114.533 117.592C120.492 119.633 127.282 115.564 129.699 108.505C132.117 101.446 129.246 94.0688 123.287 92.0283C117.328 89.9878 110.538 94.0563 108.12 101.115C105.703 108.175 108.574 115.551 114.533 117.592Z" fill="white"/>
<mask id="mask0_71_2" style="mask-type:luminance" maskUnits="userSpaceOnUse" x="107" y="91" width="24" height="28">
<path d="M114.533 117.592C120.492 119.633 127.282 115.564 129.699 108.505C132.117 101.446 129.246 94.0688 123.287 92.0283C117.328 89.9878 110.538 94.0563 108.12 101.115C105.703 108.175 108.574 115.551 114.533 117.592Z" fill="white"/>
</mask>
<g mask="url(#mask0_71_2)">
<path d="M117.758 117.551C122.129 119.048 127.111 116.064 128.884 110.885C130.657 105.707 128.551 100.295 124.18 98.7983C119.809 97.3014 114.827 100.286 113.054 105.464C111.281 110.643 113.387 116.054 117.758 117.551Z" fill="black"/>
</g>
<path d="M144.583 128.552C150.542 130.593 157.332 126.524 159.749 119.465C162.166 112.406 159.296 105.029 153.337 102.988C147.378 100.948 140.588 105.016 138.17 112.076C135.753 119.135 138.624 126.512 144.583 128.552Z" fill="white"/>
<mask id="mask1_71_2" style="mask-type:luminance" maskUnits="userSpaceOnUse" x="137" y="102" width="24" height="28">
<path d="M144.583 128.552C150.542 130.593 157.332 126.524 159.749 119.465C162.166 112.406 159.296 105.029 153.337 102.988C147.378 100.948 140.588 105.016 138.17 112.076C135.753 119.135 138.624 126.512 144.583 128.552Z" fill="white"/>
</mask>
<g mask="url(#mask1_71_2)">
<path d="M147.808 128.511C152.179 130.008 157.16 127.024 158.934 121.845C160.707 116.667 158.601 111.255 154.23 109.758C149.858 108.261 144.877 111.246 143.104 116.424C141.331 121.603 143.437 127.014 147.808 128.511Z" fill="black"/>
</g>
<path fill-rule="evenodd" clip-rule="evenodd" d="M179.778 37.2631C173.578 28.0642 174.545 15.4576 182.68 7.3222C191.914 -1.91122 206.906 -1.91169 216.14 7.32257C225.373 16.5559 225.373 31.548 216.14 40.7814C208.004 48.9168 195.398 49.8841 186.199 43.6833C186.199 43.6833 182.544 44.9022 179.737 45.8375C179.136 46.0377 178.474 45.8818 178.028 45.4352C177.58 44.9876 177.424 44.3256 177.624 43.7251C178.56 40.9182 179.778 37.2631 179.778 37.2631Z" fill="black"/>
<path d="M198.502 30.2063C199.986 30.2063 200.796 29.3933 201.112 27.9985C201.377 26.2488 202.008 25.353 204.772 23.7491C207.715 22.0207 209.234 19.8752 209.234 16.7306C209.234 11.8773 205.25 8.6286 199.338 8.6286C194.859 8.6286 191.523 10.3988 190.192 13.1475C189.774 13.9392 189.57 14.7309 189.57 15.6267C189.57 17.2092 190.593 18.2304 192.24 18.2304C193.502 18.2304 194.441 17.6468 194.961 16.3134C195.635 14.4605 197.009 13.4606 199.048 13.4606C201.334 13.4606 202.921 14.8768 202.921 16.9174C202.921 18.8344 202.11 19.8751 199.423 21.479C196.966 22.9165 195.695 24.5408 195.695 26.9986V27.2904C195.695 28.9983 196.736 30.2063 198.502 30.2063ZM198.544 39.4745C200.438 39.4745 201.965 38.037 201.965 36.2046C201.965 34.3712 200.438 32.9346 198.544 32.9346C196.676 32.9346 195.149 34.3712 195.149 36.2046C195.149 38.037 196.676 39.4745 198.544 39.4745Z" fill="white"/>
<path fill-rule="evenodd" clip-rule="evenodd" d="M198.021 176.328C198.441 176.69 198.988 176.872 199.542 176.831C200.096 176.79 200.61 176.531 200.973 176.11C202.994 173.769 206.758 169.408 208.78 167.066C209.142 166.646 209.324 166.099 209.282 165.545C209.242 164.992 208.983 164.477 208.563 164.114C208.143 163.751 207.595 163.571 207.041 163.611C206.488 163.651 205.974 163.911 205.611 164.331C203.59 166.673 199.826 171.034 197.804 173.376C197.442 173.796 197.26 174.343 197.301 174.896C197.342 175.45 197.601 175.965 198.021 176.328Z" fill="#E2E8F0"/>
<path fill-rule="evenodd" clip-rule="evenodd" d="M240.878 125.328C250.781 133.861 250.899 149.979 241.143 161.302C231.387 172.625 215.428 174.891 205.525 166.358C195.623 157.826 195.504 141.708 205.261 130.385C215.017 119.062 230.976 116.796 240.878 125.328ZM236.573 130.324C229.083 123.871 216.964 125.637 209.53 134.265C202.094 142.895 202.139 155.141 209.629 161.595C217.12 168.049 229.238 166.283 236.674 157.654C244.108 149.025 244.064 136.779 236.573 130.324Z" fill="black"/>
<path fill-rule="evenodd" clip-rule="evenodd" d="M202.164 171.529C203.919 173.044 204.113 175.694 202.599 177.449C199.156 181.438 193.284 188.24 189.842 192.229C188.327 193.984 185.677 194.18 183.921 192.665C182.166 191.15 181.972 188.499 183.487 186.744L196.244 171.964C197.758 170.209 200.409 170.014 202.164 171.529Z" fill="#FFCC02"/>
</svg>
